{"title":"The graves (2009)( Xvid) [NLUPPER]","uid":5500160,"size":1568380032,"categoryP":"video","categoryS":"movies","magnet":"?xt=urn:btih:9b58226539367f06758d7ec0ff4839b865daee5e&amp;dn=The+graves+%282009%29%28+Xvid%29+%5BNLUPPER%5D&amp;tr=udp%3A%2F%2Ftracker.openbittorrent.com%3A80&amp;tr=udp%3A%2F%2Fopen.demonii.com%3A1337&amp;tr=udp%3A%2F%2Ftracker.coppersurfer.tk%3A6969&amp;tr=udp%3A%2F%2Fexodus.desync.com%3A6969","seeders":0,"leechers":1,"uploader":"NLUPPER","files":-1,"time":1271495511,"description":"The graves (2009)( Xvid) [NLUPPER]\n\nIn Skull City, Death is the least of your problems.\n\nPLOT\n\nPresent day. Arizona. Megan and Abby Graves are inseparable sisters that couldn't be less alike. \nMegan just graduated ASU with a marketing degree. She's a self-assured, naturally attractive rock chick with a black belt that she likes to use. \nAbby just barely graduated high school. She's a cute, Hot Topic Goth who's caustic and afraid of her own shadow. \nThey share one thing: a life-long obsession with comics and pop culture. Simply put, they are beautiful geeks. \nIn a few days, Megan will start a new job at in New York. \nTo send her off in style, the sisters go on a wild, pop culture bender that includes a trip to uncharted Arizona in search of a kitchy roadside attraction. \nInstead, Megan and Abby happen on Skull City Mine, a weather-beaten, abandoned mine town converted into a self-guided tour. \nBut Skull City harbors terrible, vexing secrets. It appears to be haunted. Its caretakers are murderous. \nVictims' souls are ripped from their bodies right before their eyes, and that's only the beginning. \nWhen Megan suffers a near mortal wound, Abby must save her sister, but to do so, she must unlock the mystery of Skull City alone. \nCan Abby defeat the threats of Skull City and rescue Megan or are they doomed like all the other tourists before them? \n\n\nVerenigde Staten\nHorror / Thriller\n88 minuten\n\ngeregisseerd door Brian Pulido\nmet Clare Grant, Jillian Murray en Bill Moseley\n\nMegan en Abby Graves zijn twee onafscheidelijke zusters. \nMegan is zojuist geslaagd voor haar marketing diploma en heeft gelijk een baan gevonden. \nOm dat te vieren gaan de twee er een weekend op uit. \nHun plannen moet hen brengen naar het ongerepte Arizona met zijn prachtige hippe plekjes. \nIn plaats hiervan komen ze terecht in het schimmige, verlaten mijnstadje Skull City Mine. \nHet stadje herbergt een aantal geheimen die het daglicht niet kunnen verdragen. \nOp zeker moment raakt Abby gewond. Om haar te redden moet Megan het mysterie van Skull City Mine zien te ontrafelen.\n\n\nSUBS: Extern Dutch (SUB FILE)\n\nGeneral\n\nFormat                           : DivX\nFormat/Info                      : Hack of AVI\nFile size                        : 1.46 GiB\nDuration                         : 1h 27mn\nOverall bit rate                 : 2 382 Kbps\n\nVideo\nID                               : 0\nFormat                           : MPEG-4 Visual\nFormat profile                   : AdvancedSimple@L5\nFormat settings, BVOP            : Yes\nFormat settings, QPel            : No\nFormat settings, GMC             : No warppoints\nFormat settings, Matrix          : Custom\nMuxing mode                      : Packed bitstream\nCodec ID                         : DX50\nCodec ID/Hint                    : DivX 5\nDuration                         : 1h 27mn\nBit rate                         : 2 114 Kbps\nWidth                            : 720 pixels\nHeight                           : 416 pixels\nDisplay aspect ratio             : 16:9\nFrame rate                       : 29.970 fps\nResolution                       : 24 bits\nColorimetry                      : 4:2:0\nScan type                        : Progressive\nBits/(Pixel*Frame)               : 0.235\nStream size                      : 1.29 GiB (89%)\nTitle                            : Video \nWriting library                  : XviD 1.2.1 (UTC 2008-12-04)\n\nAudio\nID                               : 1\nFormat                           : AC-3\nFormat/Info                      : Audio Coding 3\nCodec ID                         : 2000\nDuration                         : 1h 27mn\nBit rate mode                    : Constant\nBit rate                         : 256 Kbps\nChannel(s)                       : 2 channels\nChannel positions                : L R\nSampling rate                    : 48.0 KHz\nStream size                      : 160 MiB (11%)\nAlignment                        : Split accross interleaves\nInterleave, duration             : 33 ms (1.00 video frame)\nInterleave, preload duration     : 500 ms\nTitle                            : Audio \n\nMM:   &lt;a href=&quot; http://www.moviemeter.nl/film/54651&quot; rel=&quot;nofollow&quot; target=&quot;_NEW&quot;&gt; http://www.moviemeter.nl/film/54651&lt;/a&gt;\n\nIMDB:   &lt;a href=&quot; http://www.imdb.com/title/tt1203517/&quot; rel=&quot;nofollow&quot; target=&quot;_NEW&quot;&gt; http://www.imdb.com/title/tt1203517/&lt;/a&gt;","torrent":{"xt":"urn:btih:9b58226539367f06758d7ec0ff4839b865daee5e","amp;dn":"The+graves+%282009%29%28+Xvid%29+%5BNLUPPER%5D","amp;tr":["udp%3A%2F%2Ftracker.openbittorrent.com%3A80","udp%3A%2F%2Fopen.demonii.com%3A1337","udp%3A%2F%2Ftracker.coppersurfer.tk%3A6969","udp%3A%2F%2Fexodus.desync.com%3A6969"],"infoHash":"9b58226539367f06758d7ec0ff4839b865daee5e","infoHashBuffer":{"type":"Buffer","data":[155,88,34,101,57,54,127,6,117,141,126,192,255,72,57,184,101,218,238,94]},"announce":[],"urlList":[]}}